<svg xmlns="http://www.w3.org/2000/svg" xmlns:xlink="http://www.w3.org/1999/xlink" viewBox="0,0,256,256" width="96px" height="96px" fill-rule="none"><g fill="#ffffff" fill-rule="none" stroke="none" stroke-width="1" stroke-linecap="butt" stroke-linejoin="miter" stroke-miterlimit="10" stroke-dasharray="" stroke-dashoffset="0" font-family="none" font-weight="none" font-size="none" text-anchor="none" style="mix-blend-mode: normal"><g transform="scale(4,4)"><path d="M33.312,35.641l14.91,14.91c-1.396,0.941 -3.039,1.449 -4.76,1.449h-22.924c-1.052,0 -2.071,-0.197 -3.026,-0.559z" fill-rule="nonzero"></path><path d="M44.803,37.508c1.61,-6.185 4.942,-8.142 7.197,-11.445v17.399c0,1.473 -0.375,2.886 -1.072,4.139l-14.787,-14.789l2.922,-2.922c1.678,2.32 3.371,3.729 4.384,7.618c0.177,0.676 0.117,1.168 0.678,1.168c0.561,0 0.502,-0.492 0.678,-1.168z" fill-rule="nonzero"></path><path d="M33.961,19.58c0,2.824 1.159,4.911 2.697,7.059l-22.492,22.492c-1.395,-1.565 -2.166,-3.556 -2.166,-5.67v-22.922c0,-2.281 0.889,-4.426 2.501,-6.038c1.613,-1.612 3.757,-2.5 6.037,-2.5h16.832c-2.087,1.86 -3.409,4.562 -3.409,7.579zM23,28c2.762,0 5,-2.238 5,-5c0,-0.343 -0.037,-0.677 -0.103,-1l-0.028,-0.111h-4.869v1.667h3.333c-0.265,1.576 -1.682,2.778 -3.333,2.778c-1.841,0 -3.333,-1.492 -3.333,-3.333c0,-1.841 1.492,-3.333 3.333,-3.333c0.833,0 1.593,0.308 2.178,0.814l1.195,-1.17c-0.889,-0.815 -2.073,-1.312 -3.373,-1.312c-2.762,0 -5,2.238 -5,5c0,2.762 2.238,5 5,5z" fill-rule="nonzero"></path><path d="M44.1,39.556c-0.929,-0.098 -2.463,-1.565 -2.543,-2.934c-0.005,-0.092 -0.021,-0.193 -0.063,-0.293c-1.11,-2.641 -3.222,-4.198 -5.236,-6.865c-2.21,-2.926 -4.297,-5.69 -4.297,-9.884c0,-6.707 5.457,-12.164 12.164,-12.164c6.707,0 12.164,5.457 12.164,12.164c0,4.194 -2.087,6.958 -4.297,9.884c-2.014,2.667 -4.322,4.615 -5.007,6.816c-0.032,0.103 -0.045,0.202 -0.063,0.292c-0.405,2.064 -1.844,2.984 -2.822,2.984zM44.125,11.416c-4.502,0 -8.164,3.662 -8.164,8.164c0,2.854 1.464,4.792 3.489,7.474c1.512,2.002 3.299,4.369 4.675,7.587c1.376,-3.219 3.163,-5.585 4.675,-7.587c2.025,-2.682 3.489,-4.62 3.489,-7.474c0,-4.502 -3.662,-8.164 -8.164,-8.164z" fill-rule="nonzero"></path><path d="M44.125,16.143c1.392,0 2.523,1.13 2.523,2.523c0,1.393 -1.13,2.523 -2.523,2.523c-1.392,0 -2.523,-1.13 -2.523,-2.523c0,-1.393 1.131,-2.523 2.523,-2.523z" fill-rule="evenodd"></path></g></g></svg>