<svg xmlns="http://www.w3.org/2000/svg" xmlns:xlink="http://www.w3.org/1999/xlink" viewBox="0,0,256,256" width="96px" height="96px" fill-rule="nonzero"><g fill="#ffffff" fill-rule="nonzero" stroke="none" stroke-width="1" stroke-linecap="butt" stroke-linejoin="miter" stroke-miterlimit="10" stroke-dasharray="" stroke-dashoffset="0" font-family="none" font-weight="none" font-size="none" text-anchor="none" style="mix-blend-mode: normal"><g transform="scale(4,4)"><path d="M32,10c12.15,0 22,9.85 22,22c0,12.15 -9.85,22 -22,22c-3.894,0 -7.549,-1.016 -10.722,-2.791l-11.063,2.475l2.816,-10.547c-1.924,-3.267 -3.031,-7.072 -3.031,-11.137c0,-12.15 9.85,-22 22,-22zM42.861,39.595c0.453,-1.272 0.453,-2.363 0.312,-2.592c-0.137,-0.222 -0.495,-0.358 -1.041,-0.631c-0.546,-0.273 -3.225,-1.595 -3.727,-1.775c-0.495,-0.18 -0.862,-0.273 -1.219,0.273c-0.367,0.546 -1.406,1.775 -1.731,2.132c-0.315,0.367 -0.631,0.409 -1.177,0.136c-0.546,-0.273 -2.303,-0.845 -4.383,-2.704c-1.619,-1.441 -2.712,-3.225 -3.027,-3.769c-0.315,-0.545 -0.035,-0.843 0.238,-1.117c0.248,-0.238 0.546,-0.631 0.82,-0.946c0.264,-0.325 0.357,-0.546 0.537,-0.913c0.189,-0.357 0.094,-0.682 -0.042,-0.955c-0.136,-0.273 -1.193,-2.968 -1.679,-4.043c-0.409,-0.904 -0.836,-0.93 -1.228,-0.939c-0.317,-0.016 -0.684,-0.016 -1.041,-0.016c-0.367,0 -0.955,0.136 -1.458,0.682c-0.493,0.546 -1.901,1.861 -1.901,4.547c0,2.677 1.945,5.271 2.218,5.628c0.273,0.367 3.769,6.046 9.313,8.23c4.596,1.81 5.535,1.45 6.541,1.357c0.996,-0.086 3.222,-1.314 3.675,-2.585z"></path></g></g></svg>